<?xml version="1.0" encoding="utf-8"?>
<!-- Generator: Adobe Illustrator 16.0.0, SVG Export Plug-In . SVG Version: 6.00 Build 0)  -->
<!DOCTYPE svg PUBLIC "-//W3C//DTD SVG 1.1//EN" "http://www.w3.org/Graphics/SVG/1.1/DTD/svg11.dtd">
<svg version="1.1" xmlns="http://www.w3.org/2000/svg" xmlns:xlink="http://www.w3.org/1999/xlink" x="0px" y="0px" width="101px"
	 height="39.25px" viewBox="0 0 101 39.25" enable-background="new 0 0 101 39.25" xml:space="preserve">
<g id="Layer_1">
	<path fill="#FF9933" stroke="#FFFFFF" stroke-miterlimit="10" d="M100.5,26.949c0,6.375-5.227,11.801-11.53,11.801H11.916
		C5.611,38.75,0.5,33.324,0.5,26.949v-8.657C0.5,11.918,5.611,6.75,11.916,6.75H88.97c6.304,0,11.53,5.168,11.53,11.542V26.949z"/>
	<g>
		<g>
			<path fill="#FFFFFF" d="M16.239,16.18c0.002,0,0.004,0,0.004,0S16.241,16.18,16.239,16.18L16.239,16.18"/>
			<path fill="#FFFFFF" d="M22.948,16.239c0.031,0.014,0.068,0.027,0.105,0.043c0.006,0.007,0.02,0.007,0.031,0.013
				c0.016,0,0.02,0.004,0.021,0.008c-0.01,0.006-0.045,0-0.053-0.004c-0.01-0.004-0.021-0.004-0.035-0.008
				c-0.021-0.024-0.057-0.024-0.088-0.038c-0.006-0.002-0.012-0.006-0.018-0.01c0,0,0,0-0.004-0.004
				C22.913,16.236,22.931,16.232,22.948,16.239"/>
			<path fill="#FFFFFF" d="M21.532,15.6c0.014,0,0.027,0.014,0.043,0.006c0.186,0.04,0.293,0.078,0.293,0.078
				c-0.002,0-0.008,0-0.014,0c0.023,0.006,0.045,0.01,0.066,0.021c-0.01-0.004-0.248-0.057-0.25-0.057
				c0.055,0.026,0.113,0.028,0.166,0.046l0,0c0,0.004,0,0.004,0.039,0.017c-0.047-0.006-0.047-0.006-0.104-0.022
				c-0.008-0.004-0.018-0.004-0.023-0.004c-0.061,0-0.172-0.027-0.172-0.027c-0.006-0.003-0.01-0.003-0.01-0.007v-0.002
				c-0.006-0.008-0.014-0.012-0.016-0.014s-0.01-0.008-0.014-0.008c0.014-0.002,0.014-0.002,0.111,0.016
				c-0.033-0.008-0.07-0.008-0.102-0.028c0.004,0,0.008,0,0.049,0.007c-0.029-0.007-0.061-0.011-0.094-0.019
				C21.503,15.602,21.526,15.598,21.532,15.6"/>
			<path fill="#FFFFFF" d="M23.163,16.34c0,0,0.002,0.004,0.02,0.014c0.008,0.004,0.014,0.006,0.016,0.01l0,0
				c0.008,0.005,0.016,0.005,0.023,0.005c0.037,0.01,0.07,0.02,0.078,0.021c0,0.002,0,0.002,0,0.002c-0.004,0-0.004,0-0.004,0.002
				c0,0.004,0,0.004,0.023,0.021c-0.041-0.004-0.047-0.008-0.08-0.017c-0.123-0.04-0.133-0.044-0.146-0.054
				c-0.006-0.004-0.006-0.004-0.006-0.004c0.004-0.004,0.01-0.004,0.027,0c-0.002,0-0.01-0.004-0.01-0.004c0-0.004,0-0.004,0-0.004
				C23.116,16.333,23.134,16.333,23.163,16.34"/>
			<path fill="#FFFFFF" d="M23.509,16.665c0,0.004,0.018,0.031,0.018,0.031c0.006,0.009,0.016,0.011,0.021,0.021
				c0.002,0.004,0.002,0.01,0.008,0.014c0.002,0.002,0.014,0.011,0.027,0.015c0.039,0.016,0.068,0.033,0.068,0.033
				c-0.004,0.002-0.004,0.002-0.025-0.002c0,0-0.002,0.006-0.002,0.009c0.016,0.012,0.033,0.023,0.049,0.035
				c-0.006,0.003-0.014,0.003-0.012,0.013c0,0,0,0,0.012,0.016c-0.02-0.008-0.045-0.016-0.066-0.025
				c-0.002-0.003-0.008-0.005-0.01-0.007c-0.002-0.004-0.004-0.004-0.006-0.008c-0.008-0.004-0.014-0.016-0.02-0.021
				c-0.018-0.015-0.037-0.026-0.057-0.04c0,0-0.037-0.042-0.043-0.049c-0.018-0.027-0.006-0.035,0.033-0.035L23.509,16.665"/>
			<path fill="#FFFFFF" d="M23.476,16.604c0,0,0.041,0.019,0.043,0.03s0.01,0.016,0.053,0.026c0.006,0.002,0.006,0.002,0.018,0.025
				c0.002,0.008,0.002,0.008,0.021,0.012c0.027,0.009,0.049,0.024,0.068,0.043c-0.02-0.011-0.023-0.011-0.027-0.011l0,0
				c0,0.006,0.002,0.006,0.002,0.011c-0.021,0.006-0.078-0.04-0.066-0.011c-0.006-0.002-0.012-0.002-0.016-0.006
				c-0.006-0.004-0.006-0.008-0.008-0.018c-0.008-0.022-0.014-0.028-0.031-0.044c-0.002,0-0.049-0.036-0.084-0.032
				c-0.004-0.004-0.01-0.004-0.012-0.008c-0.006-0.004-0.006-0.013-0.008-0.019c0.01,0.006,0.029,0.015,0.043,0.017
				c-0.008-0.007-0.021-0.011-0.033-0.019l0,0C23.448,16.598,23.466,16.604,23.476,16.604"/>
			<path fill="#FFFFFF" d="M23.31,16.428c0.031,0.006,0.062,0.022,0.09,0.036c-0.002,0-0.012,0-0.008,0.004
				c0.004,0.002,0.004,0.002,0.006,0.006c-0.025-0.01-0.055-0.016-0.08-0.02c-0.014-0.004-0.018-0.007-0.021-0.011c0,0,0,0,0-0.002
				c0-0.004,0-0.008,0-0.008s0-0.004,0-0.006c0,0,0-0.004,0.008-0.004C23.306,16.424,23.308,16.428,23.31,16.428"/>
			<path fill="#FFFFFF" d="M23.429,16.444c0.025,0.011,0.025,0.015,0.021,0.015l-0.016,0.004c0,0-0.041-0.012-0.055-0.024
				c-0.002,0-0.004-0.004,0.002-0.004S23.413,16.434,23.429,16.444"/>
			<path fill="#FFFFFF" d="M21.913,15.705c0.051,0.012,0.1,0.027,0.131,0.036c-0.018,0-0.041,0-0.061-0.009
				c-0.02,0-0.025,0-0.043-0.006c-0.027-0.01-0.047-0.018-0.047-0.021C21.897,15.701,21.909,15.705,21.913,15.705"/>
			<path fill="#FFFFFF" d="M21.306,15.541c0.016,0.004,0.027,0.004,0.041,0.006v0.002c0.002,0,0.002,0,0.002,0l0,0
				c0.004,0,0.004,0.002,0.004,0.002l0,0c0.002,0,0.002,0,0.002,0h0.002l0,0l0.094,0.018c0.076,0.021,0.152,0.028,0.227,0.051
				c-0.207-0.038-0.207-0.038-0.254-0.04c0.002,0,0.002,0,0.002,0c-0.008-0.004-0.018-0.009-0.029-0.009
				c-0.004,0-0.006,0-0.012-0.002c0.01,0,0.018,0,0.027,0c-0.023-0.002-0.045-0.006-0.068-0.014c0.002,0,0.004,0,0.004,0
				c-0.016-0.01-0.039-0.01-0.055-0.016C21.298,15.537,21.298,15.537,21.306,15.541"/>
			<path fill="#FFFFFF" d="M24.479,16.648l-0.271-0.136l0,0c0.006,0,0.016,0.006,0.023,0.012c-0.113-0.056-0.211-0.102-0.238-0.109
				c0.012,0.008,0.029,0.016,0.047,0.02C24.22,16.512,24.478,16.644,24.479,16.648 M24.069,16.442l-0.322-0.147h0.006
				c0.057,0.03,0.111,0.054,0.166,0.08c-0.004-0.002-0.012-0.006-0.016-0.011c0.064,0.028,0.125,0.064,0.184,0.091
				C24.083,16.451,24.073,16.446,24.069,16.442 M23.651,16.252c-0.158-0.061-0.361-0.146-0.518-0.208l0.006,0.002
				C23.343,16.126,23.647,16.252,23.651,16.252 M22.081,15.712c-0.002,0-0.01-0.004-0.012-0.004c0.072,0.02,0.146,0.04,0.217,0.062
				c0.252,0.07,0.459,0.145,0.52,0.162c-0.002,0-0.004-0.002-0.006-0.002c0.057,0.016,0.113,0.04,0.168,0.054
				c-0.01,0-0.02-0.004-0.029-0.008c0.031,0.008,0.059,0.021,0.088,0.03c-0.266-0.088-0.619-0.202-0.885-0.28l-0.004-0.002
				C22.12,15.718,22.099,15.716,22.081,15.712 M22.083,15.712l-0.014-0.004l0,0C22.071,15.708,22.079,15.712,22.083,15.712
				 M21.784,15.634l-0.025-0.004l0.008,0.004c0.035,0.006,0.07,0.016,0.109,0.022C21.847,15.65,21.81,15.64,21.784,15.634
				 M21.294,15.53c-0.002,0-0.004-0.002-0.006-0.002c0.027,0.009,0.055,0.013,0.086,0.019c0.111,0.023,0.221,0.048,0.33,0.072
				c-0.127-0.034-0.254-0.057-0.383-0.082h-0.006c0,0,0-0.002-0.002-0.002c0.014,0.002,0.025,0.006,0.041,0.01
				C21.335,15.541,21.313,15.535,21.294,15.53 M13.659,16.696c0.143-0.069,0.279-0.147,0.428-0.22
				c-0.133,0.07-0.311,0.16-0.445,0.227l-0.004,0.004c0,0.004,0,0.004-0.004,0.004C13.644,16.705,13.651,16.701,13.659,16.696"/>
		</g>
	</g>
	<g>
		<g enable-background="new    ">
			<path fill="#FFFFFF" d="M37.565,15.688v7.185c0,2.719,1.206,3.871,2.827,3.871c1.801,0,2.953-1.188,2.953-3.871v-7.185h1.584
				v7.076c0,3.728-1.962,5.258-4.591,5.258c-2.484,0-4.357-1.423-4.357-5.186v-7.148H37.565z"/>
			<path fill="#605D5D" d="M47.266,26.203c0.468,0.306,1.296,0.63,2.089,0.63c1.152,0,1.692-0.576,1.692-1.297
				c0-0.756-0.45-1.17-1.621-1.602c-1.566-0.559-2.305-1.423-2.305-2.467c0-1.405,1.135-2.558,3.007-2.558
				c0.882,0,1.657,0.253,2.143,0.541l-0.396,1.152c-0.342-0.217-0.972-0.505-1.782-0.505c-0.937,0-1.458,0.54-1.458,1.188
				c0,0.721,0.522,1.045,1.656,1.477c1.513,0.576,2.287,1.332,2.287,2.629c0,1.53-1.188,2.61-3.259,2.61
				c-0.954,0-1.836-0.233-2.449-0.594L47.266,26.203z"/>
			<path fill="#605D5D" d="M60.822,27.499c-0.414,0.216-1.333,0.504-2.503,0.504c-2.629,0-4.339-1.782-4.339-4.447
				c0-2.683,1.836-4.627,4.682-4.627c0.936,0,1.764,0.234,2.197,0.45l-0.36,1.225c-0.378-0.217-0.972-0.415-1.836-0.415
				c-1.999,0-3.079,1.477-3.079,3.296c0,2.017,1.296,3.259,3.025,3.259c0.9,0,1.495-0.234,1.945-0.433L60.822,27.499z"/>
			<path fill="#605D5D" d="M70.452,23.394c0,3.224-2.232,4.628-4.339,4.628c-2.358,0-4.177-1.729-4.177-4.483
				c0-2.917,1.909-4.628,4.321-4.628C68.76,18.91,70.452,20.729,70.452,23.394z M63.538,23.484c0,1.908,1.099,3.349,2.647,3.349
				c1.512,0,2.646-1.423,2.646-3.385c0-1.477-0.738-3.35-2.611-3.35C64.349,20.099,63.538,21.827,63.538,23.484z"/>
			<path fill="#605D5D" d="M72.448,21.827c0-1.026-0.019-1.908-0.072-2.719h1.387l0.054,1.711h0.072
				c0.396-1.171,1.351-1.909,2.413-1.909c0.18,0,0.306,0.019,0.45,0.055v1.494c-0.162-0.036-0.324-0.054-0.541-0.054
				c-1.116,0-1.908,0.846-2.124,2.034c-0.036,0.216-0.072,0.469-0.072,0.738v4.646h-1.566V21.827z"/>
			<path fill="#605D5D" d="M79.036,23.754c0.036,2.143,1.405,3.025,2.989,3.025c1.135,0,1.818-0.198,2.413-0.45l0.27,1.134
				c-0.558,0.252-1.513,0.54-2.898,0.54c-2.683,0-4.285-1.764-4.285-4.393s1.548-4.7,4.087-4.7c2.845,0,3.601,2.503,3.601,4.105
				c0,0.324-0.035,0.576-0.054,0.738H79.036z M83.682,22.62c0.019-1.009-0.414-2.575-2.196-2.575c-1.603,0-2.305,1.477-2.431,2.575
				H83.682z"/>
			<path fill="#FFFFFF" d="M86.668,27.823v-0.973l1.242-1.206c2.988-2.845,4.339-4.357,4.357-6.122c0-1.188-0.576-2.286-2.323-2.286
				c-1.062,0-1.944,0.54-2.484,0.99l-0.504-1.116c0.81-0.685,1.962-1.188,3.312-1.188c2.521,0,3.583,1.729,3.583,3.403
				c0,2.16-1.566,3.906-4.033,6.283l-0.936,0.864v0.036h5.257v1.314H86.668z"/>
		</g>
	</g>
	<g>
		<g>
			<g>
				<defs>
					<path id="SVGID_1_" d="M13.985,12.463c-1.73,0.805-3.225,2.034-4.348,3.553c0.18-0.022,0.367-0.035,0.559-0.049
						c1.215-1.535,2.84-2.736,4.707-3.43C15.481,12.374,14.749,12.097,13.985,12.463z M13.253,12.473
						c0.764-0.474-0.688-0.637-2.037,0.339c-1.254,0.951-2.305,2.144-3.121,3.493c0.355-0.092,0.734-0.171,1.141-0.233
						C10.278,14.583,11.644,13.337,13.253,12.473z M8.983,16.425c-0.398,0.073-0.768,0.164-1.113,0.262
						c-0.98,1.762-1.553,3.778-1.553,5.934c0,0.391,0.023,0.773,0.059,1.152c0.066,0.457,0.859,0.535,0.781-0.168
						c-0.023-0.297-0.045-0.594-0.045-0.895C7.112,20.391,7.808,18.24,8.983,16.425z M9.392,16.365
						c-1.238,1.809-1.969,3.991-1.969,6.346c0,0.312,0.023,0.625,0.047,0.934c0.059,0.434,0.482,0.434,0.465,0.133
						c-0.041-0.379-0.062-0.766-0.062-1.156c0-2.365,0.77-4.549,2.07-6.325C9.751,16.316,9.571,16.338,9.392,16.365z M24.208,33.527
						c1.732-0.805,3.227-2.031,4.352-3.551c-0.182,0.023-0.371,0.035-0.559,0.047c-1.217,1.535-2.84,2.738-4.709,3.43
						C22.833,33.547,22.884,34.055,24.208,33.527z M28.806,29.629c0.109-0.164,0.83-1.117,0.533-1.27
						c-0.262-0.141-0.615,0.59-0.865,1.031c-0.084,0.148-0.139,0.297-0.221,0.305C28.442,29.676,28.624,29.652,28.806,29.629z"/>
				</defs>
				<clipPath id="SVGID_2_">
					<use xlink:href="#SVGID_1_"  overflow="visible"/>
				</clipPath>
			</g>
			<circle fill="#605D5D" cx="18.656" cy="22.582" r="12.726"/>
			<path fill="#FFFFFF" d="M24.401,31.828c-0.084,0.109-0.162,0.254-0.268,0.32c-0.072,0.043-0.166,0.043-0.236,0.082
				c-0.273,0.16-0.363,0.434-0.438,0.723c-0.234,0.035-0.314,0.227-0.404,0.406c0.332,0.258,0.773-0.047,0.977-0.27v-0.152
				c0.41-0.34,0.932-0.656,0.773-1.461C24.608,31.461,24.536,31.656,24.401,31.828z M31.231,24.68c0.004,0,0.01,0,0.016,0
				c0.023-0.133,0.043-0.266,0.062-0.398C31.22,24.352,31.169,24.547,31.231,24.68z M6.47,18.57
				c-0.043,0.133-0.084,0.266-0.123,0.402c-0.029,0.119-0.049,0.24-0.043,0.359C6.396,19.125,6.466,18.809,6.47,18.57z
				 M31.397,22.459c0.014,0.021,0.018,0.049,0.025,0.076c-0.002-0.617-0.047-1.223-0.133-1.816c-0.018-0.01-0.033-0.023-0.043-0.043
				c-0.033-0.252-0.105-0.467-0.135-0.723c0.008-0.02,0.021-0.025,0.037-0.027c-0.297-1.418-0.83-2.75-1.555-3.954
				c-0.006-0.002-0.008-0.005-0.014-0.006c-0.039,0.014,0.029,0.066-0.016,0.101c-0.059-0.116-0.109-0.24-0.146-0.378
				c-0.783-1.225-1.768-2.308-2.908-3.202c-0.377-0.222-0.736-0.479-1.082-0.76c-0.002,0-0.002,0-0.004-0.001
				c-1.23-0.774-2.605-1.344-4.074-1.663c0.287,0.077,0.611,0.147,0.814,0.252c0.23,0.118,0.412,0.23,0.656,0.303
				c0.018,0.104,0.145,0.102,0.217,0.15c0.014,0.117,0.127,0.134,0.17,0.22c0.188,0.021,0.248,0.179,0.352,0.27
				c0.193,0.165,0.463,0.235,0.574,0.47c-0.047,0.067-0.139,0.088-0.152,0.186c0.062,0.106,0.09,0.246,0.135,0.37
				c-0.016,0.025-0.043,0.036-0.084,0.034c0.031,0.13,0.148,0.176,0.15,0.336c-0.195,0.014-0.309-0.312-0.488-0.319
				c-0.119-0.005-0.215,0.104-0.252,0.252c0.057,0.129,0.186,0.186,0.219,0.337c-0.084,0.095-0.209,0.148-0.252,0.285
				c0.156,0.247,0.086,0.619,0.219,0.893c-0.025,0.002-0.062-0.007-0.068,0.017c0.086,0.104,0.203,0.054,0.271,0.116
				c-0.176,0.079-0.184,0.323-0.488,0.271c0.061,0.123,0.227,0.23,0.234,0.353c-0.205-0.109-0.391-0.237-0.588-0.353
				c-0.018,0.363,0.242,0.537,0.369,0.808c-0.133,0.087-0.279,0.112-0.453,0.051c-0.135,0.051-0.23,0.139-0.254,0.302
				c-0.197,0.043-0.244,0.237-0.471,0.252c-0.145,0.159-0.375,0.229-0.521,0.387c-0.102-0.02-0.252-0.084-0.336-0.067
				c0.031,0.146,0.133,0.243,0.135,0.371c-0.215-0.014-0.229,0.173-0.404,0.201c-0.033,0.174-0.234,0.182-0.285,0.337
				c-0.184-0.063-0.359-0.133-0.438-0.303c0.111-0.008-0.02-0.077,0.033-0.118c0.295,0.046,0.65,0.011,0.773-0.168
				c-0.084-0.057-0.102-0.194-0.219-0.235c-0.07-0.025-0.174,0-0.252-0.018c-0.273-0.061-0.572-0.201-0.857-0.168
				c-0.201-0.228-0.41-0.157-0.707-0.101c-0.314,0.061-0.445,0.185-0.553,0.369c-0.361,0.022-0.367,0.396-0.725,0.422
				c-0.141,0.368-0.502,0.516-0.891,0.638c-0.141,0.213-0.24,0.406-0.168,0.758c0.158,0.064,0.348,0.102,0.537,0.135
				c0.119,0.227,0.266,0.43,0.369,0.672c0.121,0,0.238-0.002,0.338,0.018c0.211-0.189,0.568-0.385,0.504-0.74h0.084
				c-0.086-0.166-0.219-0.297-0.186-0.504c0.033-0.203,0.213-0.298,0.354-0.438c0.137-0.137,0.223-0.26,0.404-0.287
				c-0.037,0.295-0.23,0.431-0.387,0.606c0.051,0.242,0.201,0.381,0.404,0.471c0.027,0.146,0.023,0.348-0.035,0.455
				c-0.309-0.029-0.297,0.264-0.336,0.506c-0.264-0.035-0.502,0.199-0.758,0.219c-0.086,0.004-0.174-0.039-0.268-0.051
				c-0.188-0.027-0.482,0.008-0.572-0.137c0.021-0.084,0.098-0.113,0.186-0.133c-0.053-0.174-0.184-0.266-0.203-0.473
				c-0.209,0.123-0.166,0.496-0.303,0.691c-0.061-0.012-0.113-0.035-0.184-0.035c-0.178,0.16-0.357,0.105-0.555,0.203
				c-0.273,0.133-0.375,0.52-0.723,0.57c-0.234,0.037-0.477-0.047-0.676,0.119c0.07,0.24,0.188,0.432,0.203,0.723
				c-0.189,0.447-0.846,0.158-1.277,0.135c-0.121,0.188-0.238,0.379-0.371,0.555c-0.014,0.271-0.023,0.441-0.051,0.691
				c0.25,0.025,0.408,0.352,0.672,0.402c0.188,0.039,0.359-0.031,0.473-0.066c0.105-0.033,0.246-0.033,0.32-0.068
				c0.207-0.1,0.285-0.322,0.367-0.506c0.113-0.07,0.217-0.057,0.34-0.15c0.117-0.092,0.178-0.299,0.301-0.336
				c0.119-0.037,0.252,0.018,0.371,0.016c0.213,0,0.383-0.061,0.588-0.1c0.047,0.18,0.205,0.256,0.354,0.387
				c0.117,0.105,0.207,0.23,0.303,0.285c0.164,0.096,0.381,0.105,0.504,0.27c0.07,0.215-0.018,0.344,0.051,0.488
				c0.07,0.004,0.084-0.051,0.15-0.051c0.045-0.141,0.016-0.355,0.117-0.438c0.084-0.004,0.053,0.105,0.152,0.084
				c0.062-0.146-0.096-0.314-0.27-0.336c-0.121-0.209-0.361-0.299-0.57-0.42c-0.029-0.123-0.094-0.211-0.102-0.352
				c0.111,0.039,0.24,0,0.354,0.049c0.1,0.041,0.156,0.186,0.252,0.252c0.193,0.133,0.506,0.188,0.572,0.422
				c-0.027,0.072-0.092,0.109-0.102,0.199c0.027,0.207,0.303,0.25,0.389,0.387c0.098,0.16,0.066,0.379,0.201,0.539
				c0.129-0.039,0.137,0.027,0.234,0.051c0.07-0.078,0.156-0.066,0.27-0.051c0.014-0.137-0.145-0.102-0.152-0.219
				c0.035-0.051,0.117,0.039,0.119-0.051c-0.117-0.113-0.156-0.305-0.203-0.488c0.117-0.305,0.629-0.023,0.824-0.25
				c-0.098,0.109-0.158,0.254-0.15,0.469c0.15,0.125,0.215,0.336,0.303,0.523c0.457-0.098,1.006,0.074,1.346-0.117
				c0.236,0.422-0.049,0.812-0.219,1.074c-0.053-0.02-0.105-0.039-0.168-0.051c-0.123,0.113-0.305,0.059-0.471,0.086
				c-0.109,0.016-0.201,0.098-0.303,0.102c-0.508,0.023-1.002-0.305-1.498-0.336c-0.09,0.055-0.203,0.086-0.285,0.148
				c-0.031,0.156-0.062,0.309-0.168,0.387c-0.139-0.133-0.285-0.098-0.488-0.184c-0.201-0.086-0.352-0.352-0.521-0.387
				c-0.254-0.055-0.43,0.078-0.555-0.152c-0.068-0.121-0.027-0.262-0.068-0.402c-0.043-0.152-0.152-0.262-0.201-0.438
				c-0.139-0.016-0.254,0.039-0.387,0.031c-0.244-0.004-0.49-0.098-0.756-0.133c-0.27-0.035-0.652-0.008-0.875,0.035
				c-0.143,0.027-0.273,0.133-0.387,0.117c-0.129-0.02-0.242-0.277-0.387-0.27c-0.129,0.008-0.25,0.258-0.371,0.32
				c-0.098,0.047-0.211,0.023-0.303,0.051c-0.109,0.027-0.178,0.098-0.285,0.102c-0.041,0.039,0.041,0.043,0.016,0.117
				c-0.115,0.168-0.223,0.367-0.404,0.488c-0.219,0.145-0.492,0.18-0.705,0.301c-0.309,0.18-0.564,0.516-0.656,0.891
				c-0.061,0.25-0.084,0.531-0.15,0.824c-0.312,0.309,0.047,0.688-0.068,1.109c0.16,0.27,0.387,0.363,0.504,0.605
				c0.068,0.141,0.037,0.309,0.102,0.488c0.053,0.148,0.236,0.32,0.354,0.438c0.133,0.137,0.254,0.309,0.404,0.387
				c0.318,0.168,0.729,0.141,1.109,0.219c0.252,0.055,0.441,0.168,0.74,0.152c0.184-0.008,0.41-0.102,0.605-0.086
				c0.146,0.016,0.25,0.148,0.42,0.168c0.146,0.246,0.469,0.32,0.875,0.305c0.1,0.086,0.201,0.168,0.27,0.285
				c-0.143,0.184-0.283,0.438-0.287,0.707c0.455,0.438,0.814,0.969,1.229,1.445c-0.084,0.113-0.156,0.238-0.135,0.457
				c-0.076,0.07-0.195,0.082-0.234,0.184c-0.059,0.148,0.014,0.387-0.086,0.539c0.123,0.227,0.441,0.332,0.557,0.57
				c0.066,0.141,0.074,0.254,0.15,0.352c0.166,0.219,0.479,0.391,0.725,0.523c0.021,0.035,0.016,0.098,0.033,0.133
				c0.521,0.195,1.17,0.031,1.631-0.066c0.533-0.105,1.062-0.285,1.312-0.621c0.021-0.031-0.016-0.086,0.016-0.137
				c0.115-0.125,0.254-0.227,0.404-0.316c-0.02-0.195,0.064-0.281,0.117-0.406c0.4-0.285,0.926-0.441,1.211-0.84
				c-0.076-0.516-0.016-1.055-0.168-1.43c0.188-0.168,0.289-0.422,0.506-0.605c0.096-0.082,0.238-0.117,0.336-0.203
				c0.219-0.191,0.441-0.594,0.738-0.84c0.168-0.137,0.402-0.316,0.488-0.488c0.059-0.113,0.057-0.27,0.102-0.402
				c0.039-0.109,0.111-0.258,0.168-0.387c0.098-0.219,0.273-0.355,0.152-0.59c-0.098-0.012-0.197-0.027-0.303-0.035
				c-0.318,0.105-0.912,0.68-1.246,0.406V27.59c0.301-0.09,0.609-0.324,0.842-0.488c0.24-0.172,0.518-0.293,0.689-0.453
				c0.139-0.129,0.195-0.336,0.354-0.422c0.26-0.141,0.551-0.152,0.689-0.453c0.027-0.41,0.156-0.719,0.27-1.043
				c-0.113-0.094-0.139-0.238-0.254-0.336c-0.107-0.098-0.344-0.102-0.352-0.305c0.227-0.109,0.49-0.105,0.756-0.031
				c0.186-0.23,0.398-0.434,0.725-0.523c-0.006,0.07,0.041,0.082,0.066,0.117c0.389,0.02,0.525,0.285,0.791,0.422
				c0.082-0.023,0.088-0.125,0.168-0.152c0.254,0.168,0.268,0.574,0.32,0.941c0.055,0.086,0.146,0.133,0.201,0.219
				c0,0.102,0.027,0.176,0.018,0.289c0.105,0.113,0.234,0.203,0.268,0.387c0.092,0.023,0.217,0.016,0.219,0.133
				c0.146-0.391,0.303-0.766,0.287-1.227c-0.006-0.16-0.07-0.324-0.068-0.488c0.006-0.309,0.195-0.586,0.32-0.941
				c0.041-0.121,0.008-0.285,0.033-0.402c0.023-0.109,0.086-0.199,0.102-0.305c0.047-0.299,0.111-0.441,0.201-0.656
				c0.354,0.012,0.389,0.34,0.539,0.555c0.318-0.332,0.273,0.422,0.303,0.84c0.012,0.188,0.051,0.332,0.107,0.438
				c0.012-0.133,0.021-0.266,0.029-0.402c0,0-0.002,0-0.004,0C31.343,23.07,31.312,22.684,31.397,22.459z M24.585,21.23
				c-0.062-0.004-0.064-0.066-0.082-0.117C24.56,21.125,24.595,21.156,24.585,21.23z M24.452,21.098
				c0.033-0.008,0.053,0.074,0.018,0.082C24.407,21.197,24.438,21.109,24.452,21.098z M21.392,21.754
				c-0.094,0.004-0.172,0.062-0.254,0.084c-0.33,0.086-0.676,0.127-0.873,0.252c-0.049-0.055,0.049-0.107,0.066-0.152
				c-0.018-0.281,0.043-0.574,0.018-0.809c0.088-0.062,0.152-0.184,0.252-0.199c0.205-0.035,0.311,0.23,0.504,0.25
				c0.043,0.074-0.111,0.074-0.084,0.186c0.072,0.057,0.213,0.045,0.303,0.084c0.115-0.07,0.203-0.168,0.303-0.25
				c-0.068-0.012-0.299,0.059-0.387-0.02c0.104-0.242,0.314-0.379,0.521-0.52c0.195,0.113,0.014,0.301-0.033,0.453
				c0.08,0.086,0.244,0.039,0.369,0.086c0.123,0.043,0.434,0.277,0.438,0.352c0.008,0.105-0.178,0.182-0.303,0.203
				C21.978,21.795,21.575,21.742,21.392,21.754z M21.341,30.617c-0.025-0.082-0.082-0.102-0.051-0.203
				c0.041-0.031,0.135-0.008,0.201-0.016c0.037,0.004,0.008-0.059,0.018-0.086c0.082-0.008,0.086-0.008,0.168,0
				C21.651,30.5,21.563,30.625,21.341,30.617z M23.274,27.219c-0.072-0.086-0.15-0.16-0.201-0.27
				c-0.369-0.109-0.777-0.488-0.539-0.941c-0.027-0.078-0.096-0.117-0.15-0.168c-0.336,0.062-0.434-0.203-0.557-0.422
				c-0.105-0.188-0.295-0.391-0.285-0.504c0.023-0.289,0.439-0.012,0.588,0.086c0.178,0.781,0.809,1.109,1.279,1.598
				c0.049,0.238,0.133,0.438,0.186,0.672C23.491,27.25,23.39,27.227,23.274,27.219z M23.981,21.703
				c0.018-0.074,0.057-0.121,0.084-0.188c-0.217-0.324-0.631-0.553-0.539-1.041c0.098-0.1,0.182-0.213,0.287-0.303
				c0.059,0.002,0.074,0.047,0.135,0.051c0.027-0.035,0.061-0.062,0.066-0.119c0.045-0.012,0.033,0.033,0.066,0.033
				c-0.076,0.156-0.109,0.35-0.25,0.439c0.096,0.289,0.266,0.506,0.537,0.623c0.129,0.234,0.273,0.453,0.387,0.705
				c-0.01,0.068-0.064,0.092-0.068,0.168c-0.109,0.029-0.26,0.021-0.369,0.049C24.194,21.992,24.038,21.896,23.981,21.703z
				 M25.663,24.527c-0.141,0.023-0.264,0.062-0.404,0.086c-0.402-0.125-0.543-0.512-0.891-0.691
				c-0.002-0.051,0.02-0.078,0.033-0.117c0.094-0.02,0.184,0.02,0.203-0.102c0.195,0.199,0.361,0.426,0.639,0.539
				c0.15-0.051,0.326-0.078,0.504-0.102C25.737,24.297,25.728,24.402,25.663,24.527z M8.407,29.121
				c-0.051-0.461-0.221-0.711-0.422-1.043c-0.135-0.227-0.248-0.492-0.387-0.676c-0.115-0.148-0.316-0.254-0.422-0.418
				c-0.152-0.246-0.227-0.516-0.352-0.773c-0.043-0.094-0.125-0.172-0.152-0.254c-0.078-0.242-0.086-0.516-0.15-0.773
				c-0.059-0.23-0.129-0.484-0.219-0.707c-0.051-0.121-0.219-0.305-0.236-0.453c-0.008-0.074,0.018-0.164,0.018-0.234
				c-0.014-0.676-0.096-1.441-0.201-1.969c-0.016,0.062-0.027,0.127-0.039,0.191c-0.006,0.184-0.012,0.367-0.012,0.555
				c0,2.895,0.961,5.559,2.578,7.703c0.035,0.012,0.07,0.023,0.113,0.027c-0.117-0.152-0.148-0.438-0.219-0.672
				C8.224,29.355,8.134,29.203,8.407,29.121z M6.271,19.533c-0.088,0.252-0.193,0.58-0.168,0.891
				C6.177,20.156,6.259,19.807,6.271,19.533z M6.263,19.268c-0.02,0.08-0.043,0.162-0.061,0.244c0,0,0,0.002,0.002,0.004
				C6.22,19.447,6.261,19.352,6.263,19.268z M6.118,20.457c-0.029,0.094-0.08,0.256-0.033,0.371
				C6.188,20.797,6.204,20.523,6.118,20.457z M14.563,16.168c-0.188-0.069-0.445-0.038-0.625-0.135
				c-0.035,0.088-0.098,0.148-0.117,0.252c0.066,0.186,0.189,0.316,0.371,0.388c0.182-0.11,0.418-0.166,0.656-0.22
				C14.771,16.358,14.698,16.219,14.563,16.168z M21.845,15.428c0.105,0.052,0.262,0.053,0.422,0.05
				c0.021-0.22-0.213-0.183-0.254-0.337c0.035-0.13,0.074-0.283,0.018-0.42c0.105-0.101,0.186-0.229,0.219-0.403
				c0.061-0.001,0.096-0.026,0.15-0.033c-0.047-0.239-0.404-0.024-0.521,0.033c0,0.073-0.006,0.151,0.018,0.202
				C21.601,14.626,21.632,15.25,21.845,15.428z M19.81,23.434c0.029-0.074-0.105-0.113-0.168-0.148
				c-0.029,0.031-0.012,0.109-0.018,0.168C19.731,23.453,19.718,23.375,19.81,23.434z M17.808,22.797
				c-0.088-0.18-0.277-0.188-0.438-0.07c-0.049-0.023-0.062-0.078-0.133-0.082c-0.02,0.055-0.029,0.117-0.051,0.168
				c0.184,0.051,0.314,0.156,0.453,0.254C17.669,22.949,17.737,22.871,17.808,22.797z M16.446,22.141
				c0.039,0.156,0.102,0.289,0.219,0.369c-0.021-0.229,0.182-0.254,0.084-0.471C16.632,21.938,16.511,22.047,16.446,22.141z
				 M16.731,21.719c-0.035-0.027-0.031-0.09-0.1-0.082c-0.004,0.07-0.045,0.145,0.033,0.166
				C16.681,21.77,16.737,21.777,16.731,21.719z M23.224,12.585c-0.111,0.035-0.229-0.066-0.285,0.051
				c0.076,0.044,0.174,0.129,0.27,0.101C23.214,12.657,23.173,12.627,23.224,12.585z M29.817,25.371
				c-0.092,0.316,0.031,0.5,0.084,0.723c0.18-0.145,0.148-0.672,0.018-0.84C29.913,25.32,29.854,25.336,29.817,25.371z
				 M15.556,10.433c0.008,0.116-0.096,0.118-0.137,0.185c0.117-0.019,0.244-0.026,0.338-0.067c-0.01-0.07,0.01-0.114,0.033-0.152
				C15.692,10.359,15.647,10.423,15.556,10.433z M22.501,12.753c0.121,0.049,0.172,0.165,0.303,0.201
				c0.064-0.069,0.213-0.056,0.27-0.134C22.997,12.661,22.569,12.525,22.501,12.753z M22.921,11.072
				c0.037,0.134,0.223,0.272,0.371,0.186C23.138,11.236,23.063,10.995,22.921,11.072z M13.552,11.492
				c0.258-0.052,0.475-0.143,0.641-0.286C13.919,11.081,13.669,11.304,13.552,11.492z M14.226,11.257
				c0.215,0.028,0.27-0.102,0.404-0.152C14.478,10.973,14.345,11.199,14.226,11.257z M14.243,19.297
				c0.258-0.098,0.842-0.582,0.42-0.809c-0.213,0.193-0.451,0.357-0.588,0.625C14.106,19.195,14.181,19.238,14.243,19.297z
				 M13.907,11.509c-0.053-0.021,0.023-0.064-0.018-0.084c-0.115,0.048-0.281,0.044-0.32,0.168
				C13.731,11.623,13.81,11.58,13.907,11.509z M18.716,14.52c-0.09-0.066-0.18-0.134-0.285-0.186
				c-0.119,0.037-0.266,0.048-0.371,0.102c-0.053,0.208,0.191,0.325,0.27,0.505c0.229-0.048,0.428-0.122,0.455-0.37
				c0.061,0.029,0.135,0.045,0.201,0.066c0.057-0.091,0.131-0.16,0.186-0.252C18.97,14.338,18.716,14.251,18.716,14.52z
				 M16.614,13.847c-0.182,0.018-0.203-0.271-0.422-0.27c0.002-0.123,0.07-0.179,0.051-0.319c-0.279-0.051-0.461-0.2-0.57-0.421
				c-0.086-0.013-0.123,0.024-0.203,0.018c-0.043-0.034,0.006-0.086-0.051-0.084c-0.191,0.006-0.199-0.172-0.32-0.235
				c-0.105,0.021-0.219,0.036-0.316,0.066c-0.008-0.062-0.074-0.061-0.051-0.151c-0.164,0.017-0.207-0.087-0.355-0.084
				c0.035-0.06-0.004-0.091-0.051-0.117c-0.32,0.055-0.508,0.241-0.586,0.537c0.002,0.054,0.09,0.021,0.082,0.085
				c-0.145,0.332-0.441,0.512-0.672,0.757c-0.014,0.069,0.025,0.086,0.016,0.151c-0.023,0.009-0.041,0.024-0.066,0.033
				c-0.096,0.027-0.061-0.074-0.15-0.05c-0.154,0.041-0.053,0.34-0.236,0.354c-0.039-0.011-0.078-0.024-0.135-0.017
				c-0.307,0.112-0.521,0.318-0.723,0.537c-0.055,0.384-0.361,0.513-0.354,0.958c0.457,0.516,0.686-0.349,1.109-0.369
				c0.055,0.04,0.119,0.072,0.168,0.118c0.203,0.045,0.355-0.047,0.506-0.067c0.352-0.048,0.561,0.164,0.891,0.219
				c0.15-0.036,0.264-0.154,0.389-0.235c0.043-0.029,0.096-0.032,0.133-0.067c0.047-0.042,0.059-0.119,0.102-0.169
				c0.129-0.144,0.348-0.177,0.488-0.303c0.152-0.137,0.227-0.414,0.486-0.387c0.01-0.043,0.025-0.077,0.051-0.102
				c0.018-0.061-0.076-0.014-0.066-0.066c0.23-0.106,0.521-0.15,0.807-0.202C16.562,13.916,16.661,13.884,16.614,13.847z
				 M14.915,19.852c0.223-0.191,0.703-0.127,0.875-0.369c0.045-0.219-0.195-0.365-0.234-0.537c-0.072-0.299,0.092-0.568,0.016-0.893
				c-0.197-0.236-0.395,0.084-0.521,0.219c0.072,0.072,0.17,0.121,0.236,0.201c-0.074,0.516-0.375,0.805-0.59,1.178
				C14.737,19.75,14.853,19.773,14.915,19.852z M14.595,10.937c0.164-0.086,0.307,0.004,0.404-0.135c0-0.027-0.045-0.01-0.051-0.034
				c0.125-0.071,0.273-0.118,0.404-0.185C15.044,10.58,14.794,10.776,14.595,10.937z M14.849,11.189
				c0.092-0.043,0.281-0.073,0.301-0.134C15.128,11,14.724,11.048,14.849,11.189z M10.595,14.368
				c0.012-0.354,0.447-0.466,0.641-0.738c0.012-0.02,0.023-0.039,0.037-0.058c0.062-0.112,0.113-0.272,0.043-0.431
				c-0.17,0.104-0.33,0.183-0.537,0.301c-0.133,0.077-0.355,0.339-0.473,0.371c-0.086,0.024-0.176-0.019-0.25,0
				C9.87,13.857,9.788,14.041,9.601,14.1c0.102-0.27,0.412-0.318,0.604-0.488c0.098-0.084,0.18-0.243,0.287-0.371
				c0.152-0.176,0.318-0.294,0.371-0.504c0.318-0.208,0.568-0.538,1.025-0.556c-0.059,0.085,0.055,0.119,0.102,0.152
				c-0.184,0.042-0.305,0.145-0.387,0.286c0.023,0.01,0.086-0.021,0.084,0.017c-0.037,0.054-0.088,0.091-0.119,0.15
				c0.27-0.116,0.391-0.384,0.689-0.47c0.004,0.083-0.025,0.1,0.018,0.15c0.197,0.064,0.297-0.171,0.488-0.067
				c-0.305,0.2-0.312,0.697-0.859,0.656c-0.078-0.029-0.066-0.144-0.133-0.185c-0.035,0.031-0.125,0.01-0.152,0.051
				c0.008,0.311-0.213,0.463-0.346,0.649c-0.008,0.014-0.016,0.027-0.025,0.04c-0.004,0.005-0.008,0.013-0.012,0.018
				c-0.043,0.078-0.07,0.162-0.055,0.268c0.398,0.126,0.449-0.305,0.723-0.403c-0.025,0.138-0.137,0.257-0.066,0.354
				c0.082-0.041,0.176-0.071,0.27-0.102c0.137-0.101,0.16-0.268,0.252-0.403c0.129-0.191,0.387-0.287,0.506-0.487
				c0.023-0.065-0.076-0.004-0.051-0.068c0.158-0.133,0.328-0.256,0.504-0.37c0.055-0.181,0.184-0.285,0.27-0.437
				c-0.055-0.025-0.164,0.02-0.203,0c0.113-0.052,0.234-0.094,0.254-0.235c-0.438,0.011-0.727,0.171-0.875,0.471
				c-0.078-0.006-0.133-0.036-0.168-0.084c0.24-0.246,0.576-0.399,0.891-0.572c-0.277-0.023-0.438,0.242-0.656,0.168
				c0.131-0.082,0.379-0.046,0.422-0.218c0.008-0.064-0.078-0.036-0.102-0.067c0.207-0.156,0.367-0.362,0.621-0.472
				c-0.092,0.132-0.297,0.151-0.336,0.338c0.35-0.156,0.773-0.237,1.094-0.422c0.254-0.315,0.816-0.327,1.16-0.555
				c-0.344-0.042-0.516,0.088-0.707,0.202c0.031,0.004,0.086-0.018,0.068,0.033c-0.193-0.018-0.42,0.1-0.604,0.1v0.002h-0.02
				c0.008,0,0.016-0.002,0.02-0.002c0.01,0,0.018-0.002,0.016-0.016c0.355-0.113,0.623-0.318,1.043-0.369
				c0.873-0.397,2.074-0.47,3.307-0.507c-0.061-0.001-0.121-0.003-0.184-0.003c-1.725,0-3.373,0.343-4.873,0.962
				c-0.119,0.057-0.236,0.114-0.354,0.17c-0.279,0.13-0.557,0.261-0.83,0.39c-0.691,0.373-1.344,0.808-1.953,1.296
				c-0.098,0.087-0.197,0.176-0.295,0.266c-0.189,0.172-0.395,0.339-0.59,0.516c-0.604,0.585-1.15,1.227-1.631,1.92
				c-0.148,0.249-0.297,0.496-0.465,0.722c-0.049,0.082-0.098,0.164-0.145,0.248c-0.07,0.182-0.178,0.344-0.271,0.504
				c-0.041,0.084-0.084,0.168-0.125,0.254c-0.014,0.035-0.027,0.072-0.037,0.109c0.078-0.148,0.156-0.293,0.27-0.404
				c-0.004,0.045,0.023,0.056,0.068,0.05c0.279-0.128,0.385-0.434,0.604-0.622c0.004,0.104,0.031,0.184,0.068,0.252
				c0.033-0.214,0.354-0.224,0.506-0.101c-0.043,0.088-0.137,0.123-0.152,0.236c0.129-0.005,0.166,0.081,0.234,0.135
				c0.111-0.323,0.266-0.599,0.488-0.809c0.02-0.149,0.004-0.334,0.117-0.387c0.113,0.125,0.066,0.406,0.17,0.538
				c0.029,0.096,0.119-0.063,0.168,0c-0.115,0.164-0.342,0.221-0.471,0.37c-0.035,0.301-0.133,0.636,0.102,0.791
				c0.127-0.211,0.324-0.414,0.301-0.724c0.121-0.254,0.273-0.477,0.504-0.622c0.055-0.192,0.146-0.306,0.219-0.47
				c0.059-0.125,0.109-0.257,0.17-0.371c0.125-0.235,0.326-0.394,0.42-0.605C10.813,14.36,10.647,14.417,10.595,14.368z
				 M8.39,15.462c-0.021-0.101,0.037-0.12,0.066-0.169c0.061,0.018-0.076,0.103,0.018,0.101C8.45,15.423,8.438,15.46,8.39,15.462z
				 M8.624,14.974c0.045-0.147,0.168-0.214,0.252-0.319C8.86,14.763,8.741,14.911,8.624,14.974z M8.677,14.671
				c0.043-0.134,0.254-0.304,0.387-0.354C9.021,14.457,8.802,14.562,8.677,14.671z M9.214,14.25
				c0.045-0.148,0.146-0.392,0.268-0.521C9.571,13.956,9.31,14.098,9.214,14.25z M13.552,12.097
				c0.205-0.015,0.234-0.204,0.422-0.234c-0.016,0.062-0.113,0.042-0.102,0.135c0.133,0.127,0.535-0.089,0.521,0.201
				c0.244,0.074,0.518,0.019,0.791,0.051c-0.055-0.11,0.053-0.102,0.066-0.186c-0.012-0.033-0.1,0.011-0.082-0.05
				c0.045-0.094,0.102-0.178,0.133-0.287c-0.029-0.016-0.082-0.005-0.102-0.032c0.016-0.062,0.08-0.077,0.086-0.152
				c-0.055-0.104-0.172-0.144-0.254-0.219c-0.199,0.04-0.367,0.115-0.504,0.219c0.018,0.164,0.262,0.033,0.336,0.068
				c-0.105-0.006-0.02,0.081,0.018,0.084c-0.154,0.051-0.311-0.055-0.471,0c-0.076-0.192-0.355,0.002-0.404,0.032
				c0.068-0.232,0.381-0.225,0.488-0.419c-0.062-0.032-0.133-0.009-0.15,0.05c-0.344,0.102-0.688,0.286-0.725,0.64
				C13.601,12.034,13.563,12.053,13.552,12.097z M23.087,15.394"/>
		</g>
		<g>
			<g>
				<path fill="#FF9933" stroke="#FFFFFF" stroke-miterlimit="10" d="M16.665,0.549c-1.766,0-3.273,0.59-4.516,1.766
					c-1.238,1.178-1.859,2.59-1.859,4.234c0,0.992,0.59,2.781,1.773,5.365c1.178,2.58,2.125,4.508,2.832,5.787
					c0.707,1.275,1.301,2.324,1.77,3.148c0.475-0.824,1.066-1.873,1.773-3.148c0.707-1.279,1.66-3.207,2.855-5.787
					s1.793-4.369,1.793-5.365c0-1.645-0.627-3.057-1.883-4.234C19.954,1.139,18.442,0.549,16.665,0.549L16.665,0.549z"/>
			</g>
			<ellipse fill="#FFFFFF" stroke="#FFFFFF" stroke-miterlimit="10" cx="16.692" cy="6.873" rx="2.859" ry="2.785"/>
		</g>
	</g>
</g>
<g id="Europe">
</g>
</svg>
